# xmcd
#
# Track frame offsets:
#	150
#	17007
#	33322
#	54867
#	74635
#	91375
#	113795
#	134795
#	156087
#	185602
#
# Disc length: 2679 seconds
#
# Revision: 11
# Processed by: cddbd v1.5.2PL0 Copyright (c) Steve Scherf et al.
# Submitted via: audiograbber 1.83.01
#
DISCID=880a750a
DTITLE=Madonna - Music (Special edition)
DYEAR=2000
DGENRE=Pop
TTITLE0=Music
TTITLE1=Impressive instant
TTITLE2=Runaway lover
TTITLE3=I deserve it
TTITLE4=Amazing
TTITLE5=Nobody's perfect
TTITLE6=Don't tell me
TTITLE7=What it feels like for a girl
TTITLE8=Paradise (not for me)
TTITLE9=Gone
EXTD=
EXTT0=
EXTT1=
EXTT2=
EXTT3=
EXTT4=
EXTT5=
EXTT6=
EXTT7=
EXTT8=
EXTT9=
PLAYORDER=
